# xmcd CD database file
#
# Track frame offsets:
#	150
#	14252
#	30190
#	46062
#	58825
#	71550
#	88972
#	104720
#	121102
#	138820
#
# Disc length: 2080 seconds
#
# Revision: 3
# Processed by: cddbd v1.5.2PL0 Copyright (c) Steve Scherf et al.
# Submitted via: CDex 1.51
#
DISCID=7f081e0a
DTITLE=Suzy Bogguss - Moment Of Truth
DYEAR=1990
DGENRE=Country
TTITLE0=Under The Gun
TTITLE1=My Side Of The Story
TTITLE2=Moment Of Truth
TTITLE3=All Things Made New Again
TTITLE4=Wild Horses
TTITLE5=Fear Of Flying
TTITLE6=As If I Don't Know
TTITLE7=Blue Days
TTITLE8=Burning Down
TTITLE9=Friend Of Mine
EXTD=YEAR: 1990
EXTT0=
EXTT1=
EXTT2=
EXTT3=
EXTT4=
EXTT5=
EXTT6=
EXTT7=
EXTT8=
EXTT9=
PLAYORDER=
